<svg xmlns="http://www.w3.org/2000/svg" xmlns:xlink="http://www.w3.org/1999/xlink" width="16" height="16" version="1.1" viewBox="0 0 16 16"><defs><linearGradient id="inner-fill" x1="-1.72" x2="-1.72" y1="3.572" y2=".794" gradientTransform="matrix(3.7795 0 0 3.7795 14.5 -6.308e-7)" gradientUnits="userSpaceOnUse"><stop offset="0" stop-color="#6fb558"/><stop offset="1" stop-color="#a5db9b"/></linearGradient><linearGradient id="outer-rim" x1="7.541" x2="5.159" y1="3.307" y2=".926" gradientTransform="matrix(3.7795 0 0 3.7795 -16 -6e-7)" gradientUnits="userSpaceOnUse"><stop offset="0" stop-color="#34812c"/><stop offset="1" stop-color="#87b870"/></linearGradient><radialGradient id="center-shadow" cx="2.117" cy="2.117" r=".661" gradientTransform="matrix(4.5354 8.0301e-7 -8.0301e-7 4.5354 -1.6 -1.6)" gradientUnits="userSpaceOnUse"><stop offset="0" stop-opacity=".29"/><stop offset="1" stop-opacity="0"/></radialGradient><filter id="green-to-purple" width="1.077" height="1.077" x="-.038" y="-.038" color-interpolation-filters="sRGB"><feColorMatrix type="hueRotate" values="180"/><feColorMatrix type="saturate" values="1"/><feColorMatrix type="hueRotate" values="0"/></filter><symbol id="plus-in-diamond" viewBox="0 0 16 16"><path fill="url(#inner-fill)" d="M8 2 L14 8 L8 14 L2 8 Z"/><path fill="none" stroke="#fff" stroke-opacity=".502" stroke-width="1.5" d="M8 3 L13 8 L8 13 L3 8 Z"/><path fill="none" stroke="url(#outer-rim)" d="M8 2 L14 8 L8 14 L2 8 Z"/><circle cx="8" cy="8" r="3" fill="url(#center-shadow)"/><path fill="#fff" d="m5 7h2v-2h2v2h2v2h-2v2h-2v-2h-2v-2"/></symbol></defs><g filter="url(#green-to-purple)" transform="matrix(.91504 0 0 .91504 1.5 -1.5)"><use xlink:href="#plus-in-diamond"/></g><g filter="url(#green-to-purple)" transform="matrix(.91504 0 0 .91504 0 3)"><use xlink:href="#plus-in-diamond"/></g></svg>