<svg xmlns="http://www.w3.org/2000/svg" xmlns:xlink="http://www.w3.org/1999/xlink" width="16" height="16" version="1.1" viewBox="0 0 16 16"><defs><linearGradient id="inner-fill" x1="-1.72" x2="-1.72" y1="2.778" y2="1.455" gradientTransform="matrix(3.7795 0 0 3.7795 14 .5)" gradientUnits="userSpaceOnUse"><stop offset="0" stop-color="#6fb558"/><stop offset="1" stop-color="#a5db9b"/></linearGradient><linearGradient id="outer-rim" x1="2.117" x2="1.455" y1="2.381" y2="1.72" gradientTransform="scale(3.7795 3.7795)" gradientUnits="userSpaceOnUse"><stop offset="0" stop-color="#34812c"/><stop offset="1" stop-color="#87b870"/></linearGradient><radialGradient id="center-shadow" cx="2.117" cy="2.117" r=".661" gradientTransform="matrix(2.2677 -7.9311e-7 7.9312e-7 2.2677 2.7 3.7)" gradientUnits="userSpaceOnUse"><stop offset="0" stop-opacity=".29"/><stop offset="1" stop-opacity="0"/></radialGradient><filter id="green-to-orange" width="1.167" height="1.167" x="-.083" y="-.083" color-interpolation-filters="sRGB"><feColorMatrix result="color1" type="hueRotate" values="280"/><feColorMatrix result="color2" type="saturate" values="2"/></filter></defs><g filter="url(#green-to-orange)"><circle cx="7.5" cy="8.5" r="3" fill="url(#inner-fill)"/><circle cx="7.5" cy="8.5" r="3" fill="none" stroke="url(#outer-rim)"/><path fill="#fff" d="m15.631 9.9045 0.66159 0.08268c-0.18327 1.4812-1.4463 2.6278-2.9771 2.6278-0.94244 0-1.7834-0.43457-2.3334-1.1143l3.1e-5 1.1143h-0.66667v-2.3333h2.3333v0.66667l-1.2482 3.45e-4c0.42167 0.60433 1.1221 0.99971 1.9149 0.99971 1.1906 0 2.173-0.89179 2.3156-2.0439zm0.68445-3.2895v2.3333h-2.3333v-0.66666l1.2484-5.09e-5c-0.42165-0.60446-1.1222-0.99995-1.9151-0.99995-1.1907 0-2.173 0.8918-2.3156 2.0439l-0.66159-0.082684c0.18327-1.4812 1.4463-2.6279 2.9771-2.6279 0.94244 0 1.7834 0.43457 2.3334 1.1143l-2.9e-5 -1.1143z" transform="matrix(.49952 0 0 .49952 .84885 3.6971)" style="stroke:#fff;stroke-opacity:1;stroke-width:.40038437;stroke-dasharray:none"/></g></svg>