<svg xmlns="http://www.w3.org/2000/svg" xmlns:xlink="http://www.w3.org/1999/xlink" width="16" height="16" version="1.1" viewBox="0 0 16 16"><defs><linearGradient id="linearGradient5205" x2="-3.969" y1="3.704" y2="1.058" gradientTransform="matrix(3.7795 0 0 3.7795 20.5 -.5)" gradientUnits="userSpaceOnUse"><stop offset="0" stop-color="#012e5b"/><stop offset="1" stop-color="#6399c6"/></linearGradient><linearGradient id="linearGradient5138-3" x1="3.837" x2=".397" y1="3.043" y2=".595" gradientTransform="matrix(3.7795 0 0 3.7795 5 -6e-7)" gradientUnits="userSpaceOnUse"><stop offset="0" stop-color="#012e5b"/><stop offset="1" stop-color="#6399c6"/></linearGradient><linearGradient id="linearGradient5227-0" x1="2.646" x2=".529" y1="3.969" y2="3.373" gradientTransform="matrix(3.7795 0 0 3.7795 -5.7066e-7 -7)" gradientUnits="userSpaceOnUse"><stop offset="0" stop-color="#7cbe76"/><stop offset="1" stop-color="#abd8a2"/></linearGradient><linearGradient id="linearGradient5219-8" x1="2.778" x2=".132" y1="4.101" y2="3.175" gradientTransform="matrix(3.7795 0 0 3.7795 -5.7066e-7 -7)" gradientUnits="userSpaceOnUse"><stop offset="0" stop-color="#205e1d"/><stop offset="1" stop-color="#74c768"/></linearGradient></defs><g><path fill="#5d8bb3" stroke="url(#linearGradient5205)" stroke-width="1" d="m16 3.5h-1.5l-1 1h-1l-1-1h-6v10h5.75l1 1h1.5l1-1h1.25"/><path fill="#f8f8f8" stroke="url(#linearGradient5138-3)" stroke-width="1" d="m16 2.25h-1.5l-1 1h-1l-1-1h-5v9.25h5l1 1h1l1-1h1.5"/><g fill="none" stroke-width="1"><path stroke="#bdbdbd" d="m15 8.75h1m-1-2h1m-1-2h1m-8 4h3m-3-2h3m-3-2h3"/><path stroke="#a6a6a6" d="m12.5 10.25v-4.75"/><path stroke="#d8d8d8" d="m13.5 5.75v4.25"/></g><path fill="url(#linearGradient5227-0)" stroke="url(#linearGradient5219-8)" stroke-linejoin="round" d="m10.5 7v-1.5h-7v-2l-3 3v1l3 3v-2h7v-1.5"/></g></svg>