<svg xmlns="http://www.w3.org/2000/svg" xmlns:svg="http://www.w3.org/2000/svg" id="svg9" width="16" height="16" version="1.1" viewBox="0 0 16 16"><defs id="defs4"><linearGradient id="linearGradient5010" x2="-3.969" y1="3.704" y2="1.058" gradientTransform="matrix(3.7795 0 0 3.7795 15.5 -.5)" gradientUnits="userSpaceOnUse"><stop id="stop1" offset="0" stop-color="#012e5b" style="stop-color:#015b12;stop-opacity:1"/><stop id="stop2" offset="1" stop-color="#6399c6" style="stop-color:#63c670;stop-opacity:1"/></linearGradient><linearGradient id="linearGradient5018-3" x1="3.837" x2=".397" y1="3.043" y2=".595" gradientTransform="scale(3.7795 3.7795)" gradientUnits="userSpaceOnUse"><stop id="stop3" offset="0" stop-color="#012e5b" style="stop-color:#015b12;stop-opacity:1"/><stop id="stop4" offset="1" stop-color="#6399c6" style="stop-color:#63c670;stop-opacity:1"/></linearGradient></defs><g id="g9" stroke-width="1"><path id="path4" fill="#5d8bb3" stroke="url(#linearGradient5010)" d="m 9.75,13.5 -1,1 h -1.5 l -1,-1 H 0.5 v -10 h 6 l 1,1 h 1 l 1,-1 h 6 v 10 z" style="fill:#5db36a;fill-opacity:1"/><path id="path5" fill="#f8f8f8" stroke="url(#linearGradient5018-3)" d="m 14.5,11.5 h -5 l -1,1 h -1 l -1,-1 h -5 V 2.25 h 5 l 1,1 h 1 l 1,-1 h 5 v 9.25"/><g id="g8" fill="none"><path id="path6" stroke="#bdbdbd" d="m10 8.75h3m-3-2h3m-3-2h3m-10 4h3m-3-2h3m-3-2h3"/><path id="path7" stroke="#a6a6a6" d="m7.5 10.25v-4.75"/><path id="path8" stroke="#d8d8d8" d="m8.5 5.75v4.25"/></g></g></svg>