<svg xmlns="http://www.w3.org/2000/svg" xmlns:xlink="http://www.w3.org/1999/xlink" width="16" height="16" version="1.1" viewBox="0 0 16 16"><defs><linearGradient id="linearGradient5010" x2="-3.969" y1="3.704" y2="1.058" gradientTransform="matrix(3.7795 0 0 3.7795 15.5 -.5)" gradientUnits="userSpaceOnUse"><stop offset="0" stop-color="#012e5b"/><stop offset="1" stop-color="#6399c6"/></linearGradient><linearGradient id="linearGradient5018-3" x1="3.837" x2=".397" y1="3.043" y2=".595" gradientTransform="scale(3.7795 3.7795)" gradientUnits="userSpaceOnUse"><stop offset="0" stop-color="#012e5b"/><stop offset="1" stop-color="#6399c6"/></linearGradient></defs><g stroke-width="1"><path fill="#5d8bb3" stroke="url(#linearGradient5010)" d="m9.75 13.5-1 1h-1.5l-1-1h-5.75v-10h6l1 1h1l1-1h6v10z"/><path fill="#f8f8f8" stroke="url(#linearGradient5018-3)" d="m14.5 11.5h-5l-1 1h-1l-1-1h-5v-9.25h5l1 1h1l1-1h5v9.25"/><g fill="none"><path stroke="#bdbdbd" d="m10 8.75h3m-3-2h3m-3-2h3m-10 4h3m-3-2h3m-3-2h3"/><path stroke="#a6a6a6" d="m7.5 10.25v-4.75"/><path stroke="#d8d8d8" d="m8.5 5.75v4.25"/></g></g></svg>